opsz144_wght1000_wdth50.ufo
<glyph name="zero" format="2">
	<unicode hex="0030"/>
	<advance width="1164"/>
	<outline>
		<contour>
			<point x="74.0007324219" y="754.9471435547" type="qcurve" smooth="yes"/>
			<point x="74.0007324219" y="1122.1290283203"/>
			<point x="355.9025268555" y="1532.8140869141"/>
			<point x="585.2554931641" y="1532.8140869141" type="qcurve" smooth="yes"/>
			<point x="815.5859375" y="1532.8140869141"/>
			<point x="1089.5241088867" y="1125.1539306641"/>
			<point x="1089.5241088867" y="765.9782714844" type="qcurve" smooth="yes"/>
			<point x="1089.5241088867" y="427.8835449219"/>
			<point x="819.9270629883" y="-12.0007324219"/>
			<point x="588.2416381836" y="-12.0007324219" type="qcurve" smooth="yes"/>
			<point x="361.9250488281" y="-12.0007324219"/>
			<point x="74.0007324219" y="411.6618652344"/>
		</contour>
		<contour>
			<point x="252.2734375" y="755.0467529297" type="qcurve" smooth="yes"/>
			<point x="259" y="481"/>
			<point x="419.2661743164" y="102.0751953125"/>
			<point x="581.2554931641" y="102.0751953125" type="qcurve" smooth="yes"/>
			<point x="745.2448120117" y="102.0751953125"/>
			<point x="917" y="447"/>
			<point x="911.2514038086" y="739.9471435547" type="qcurve" smooth="yes"/>
			<point x="917" y="1027"/>
			<point x="743.2309570312" y="1419.5844726562"/>
			<point x="582.2416381836" y="1418.5844726562" type="qcurve" smooth="yes"/>
			<point x="420.2523193359" y="1417.5844726562"/>
			<point x="259" y="1060"/>
		</contour>
	</outline>
</glyph>
<glyph name="one" format="2">
	<unicode hex="0031"/>
	<advance width="812"/>
	<outline>
		<contour>
			<point x="137.8354492188" y="0" type="line"/>
			<point x="137.8354492188" y="95.0017089844" type="line"/>
			<point x="396.8292236328" y="130.0017089844" type="line"/>
			<point x="396.8292236328" y="756.9260253906" type="line"/>
			<point x="391.8292236328" y="1348.5081787109" type="line"/>
			<point x="139.3532714844" y="1373.6335449219" type="line"/>
			<point x="139.3532714844" y="1475.7864990234" type="line"/>
			<point x="554.7875366211" y="1521.2770996094" type="line"/>
			<point x="581.1720581055" y="1489.8927001953" type="line"/>
			<point x="572.1720581055" y="755.9260253906" type="line"/>
			<point x="572.1720581055" y="130.0017089844" type="line"/>
			<point x="822.1658325195" y="95.0017089844" type="line"/>
			<point x="822.1658325195" y="0" type="line"/>
		</contour>
	</outline>
</glyph>
<glyph name="two" format="2">
	<unicode hex="0032"/>
	<advance width="1111"/>
	<outline>
		<contour>
			<point x="75.9194335938" y="-0.5384521484" type="line"/>
			<point x="75.9194335938" y="40.3623046875" type="line"/>
			<point x="88.4071044922" y="157.9880371094"/>
			<point x="304.6336669922" y="427.8576049805"/>
			<point x="469.5914916992" y="536.7930297852" type="qcurve" smooth="yes"/>
			<point x="623.4371948242" y="637.048828125"/>
			<point x="812.7091674805" y="938.6154785156"/>
			<point x="812.6182250977" y="1080.3651733398" type="qcurve" smooth="yes"/>
			<point x="812.5272827148" y="1202.8090820312"/>
			<point x="655.053894043" y="1328.6134033203"/>
			<point x="530.2850952148" y="1328.6134033203" type="qcurve" smooth="yes"/>
			<point x="391.9471435547" y="1328.6134033203"/>
			<point x="183.5816040039" y="1203.9401245117"/>
			<point x="134.6110839844" y="1157.1865234375" type="qcurve"/>
			<point x="46.9194335938" y="1236.9808349609" type="line"/>
			<point x="109.953125" y="1332.8696289062"/>
			<point x="347.4992675781" y="1533.919921875"/>
			<point x="592.0999145508" y="1533.919921875" type="qcurve" smooth="yes"/>
			<point x="678.0530395508" y="1533.919921875"/>
			<point x="929.1619262695" y="1343.9831542969"/>
			<point x="933.1619262695" y="1134.8485717773" type="qcurve" smooth="yes"/>
			<point x="938.1619262695" y="917.3328857422"/>
			<point x="644.7252807617" y="635.3109130859"/>
			<point x="526.4370727539" y="528.3293457031" type="qcurve" smooth="yes"/>
			<point x="320.8330078125" y="411.6459350586"/>
			<point x="159.6119995117" y="199.158203125"/>
			<point x="144.1197509766" y="96.1930541992" type="qcurve"/>
			<point x="145.1197509766" y="86.464050293" type="line"/>
			<point x="969.1134033203" y="86.464050293" type="line"/>
			<point x="969.1134033203" y="-0.5384521484" type="line"/>
		</contour>
	</outline>
</glyph>
<glyph name="three" format="2">
	<unicode hex="0033"/>
	<advance width="1132"/>
	<outline>
		<contour>
			<point x="10.1086425781" y="188.0739746094" type="qcurve"/>
			<point x="98.9003295898" y="307.931640625" type="line"/>
			<point x="160.6438598633" y="269.8546142578"/>
			<point x="312.7727050781" y="163.5366210938"/>
			<point x="479.2007446289" y="163.5366210938" type="qcurve" smooth="yes"/>
			<point x="606.7764282227" y="163.5366210938"/>
			<point x="811.5961303711" y="346.7537841797"/>
			<point x="811.5961303711" y="486.5600585938" type="qcurve" smooth="yes"/>
			<point x="811.5961303711" y="633.2120361328"/>
			<point x="575.5921020508" y="764.9323730469"/>
			<point x="385.1369628906" y="763.3170166016" type="qcurve" smooth="yes"/>
			<point x="316.8391723633" y="763.3170166016" type="line"/>
			<point x="272.7735595703" y="890.9190673828" type="line"/>
			<point x="375.7751464844" y="891.9238891602" type="line" smooth="yes"/>
			<point x="528.8590698242" y="891.3258056641"/>
			<point x="752.1260375977" y="1005.1301269531"/>
			<point x="749.1260375977" y="1108.2991943359" type="qcurve" smooth="yes"/>
			<point x="747.1260375977" y="1224.7088012695"/>
			<point x="586.8041381836" y="1326.1928100586"/>
			<point x="506.5466918945" y="1326.1928100586" type="qcurve" smooth="yes"/>
			<point x="369.2592163086" y="1326.1928100586"/>
			<point x="224.891418457" y="1222.6704101562"/>
			<point x="171.943359375" y="1163.0329589844" type="qcurve"/>
			<point x="66.2895507812" y="1293.2017822266" type="line"/>
			<point x="133.9014892578" y="1384.6565551758"/>
			<point x="352.3220825195" y="1531.9074707031"/>
			<point x="532.8120727539" y="1531.9074707031" type="qcurve" smooth="yes"/>
			<point x="705.4448242188" y="1531.9074707031"/>
			<point x="943.599609375" y="1373.2634277344"/>
			<point x="943.599609375" y="1216.2238769531" type="qcurve" smooth="yes"/>
			<point x="943.599609375" y="1067.1524658203"/>
			<point x="770.9937133789" y="898.7184448242"/>
			<point x="575.3375854492" y="869.2497558594" type="qcurve"/>
			<point x="575.3375854492" y="862.2497558594" type="line"/>
			<point x="771.9937133789" y="838.1672973633"/>
			<point x="1018.8359375" y="646.3034667969"/>
			<point x="1018.8359375" y="458.8845214844" type="qcurve" smooth="yes"/>
			<point x="1018.8359375" y="272.8463134766"/>
			<point x="710.8109741211" y="-11.0007324219"/>
			<point x="466.2127685547" y="-11.0007324219" type="qcurve" smooth="yes"/>
			<point x="316.2903442383" y="-11.0007324219"/>
			<point x="29.8491210938" y="132.1237182617"/>
		</contour>
	</outline>
</glyph>
<glyph name="four" format="2">
	<unicode hex="0034"/>
	<advance width="1165"/>
	<outline>
		<contour>
			<point x="-16.458984375" y="520.8676757812" type="line"/>
			<point x="957.126159668" y="1531.9663085938" type="line"/>
			<point x="1164.9348144531" y="1521.9663085938" type="line"/>
			<point x="948.4689941406" y="1482.9663085938" type="line"/>
			<point x="945.4689941406" y="504.9010009766" type="line"/>
			<point x="944.4689941406" y="130.0017089844" type="line"/>
			<point x="1101.6030273438" y="95.0017089844" type="line"/>
			<point x="1101.6030273438" y="0" type="line"/>
			<point x="670.0388793945" y="0" type="line"/>
			<point x="670.0388793945" y="95.0017089844" type="line"/>
			<point x="871.126159668" y="130.0017089844" type="line"/>
			<point x="864.126159668" y="507.9010009766" type="line"/>
			<point x="864.126159668" y="1299.9286499023" type="line"/>
			<point x="205.588684082" y="596.7845458984" type="line"/>
			<point x="202.588684082" y="581.7845458984" type="line"/>
			<point x="1219.2383422852" y="574.8676757812" type="line"/>
			<point x="1219.2383422852" y="432.4069824219" type="line"/>
			<point x="-10.458984375" y="421.4069824219" type="line"/>
		</contour>
	</outline>
</glyph>
<glyph name="five" format="2">
	<unicode hex="0035"/>
	<advance width="1092"/>
	<outline>
		<contour>
			<point x="-19.0266113281" y="154.9992675781" type="qcurve"/>
			<point x="70.903503418" y="279.9213867188" type="line"/>
			<point x="127.1104736328" y="255.0349731445"/>
			<point x="348.3463134766" y="146.3057861328"/>
			<point x="530.3531494141" y="146.3057861328" type="qcurve" smooth="yes"/>
			<point x="694.046875" y="146.3057861328"/>
			<point x="899.0198974609" y="315.2633056641"/>
			<point x="899.0198974609" y="482.2768554688" type="qcurve" smooth="yes"/>
			<point x="899.0198974609" y="638.0902099609"/>
			<point x="567.1527709961" y="773.3217773438"/>
			<point x="238.1860961914" y="737.3093261719" type="qcurve" smooth="yes"/>
			<point x="138.7344360352" y="732.3093261719" type="line"/>
			<point x="110.580871582" y="775.7104492188" type="line"/>
			<point x="128.580871582" y="1473.076171875" type="line"/>
			<point x="148.580871582" y="1506.076171875" type="line"/>
			<point x="889.6502685547" y="1506.076171875" type="line"/>
			<point x="898.9766845703" y="1403.0233764648" type="line"/>
			<point x="271.1504516602" y="1403.0233764648" type="line"/>
			<point x="261.1504516602" y="1385.0233764648" type="line"/>
			<point x="228.983215332" y="889.0505371094" type="line"/>
			<point x="469.4354858398" y="972.0549316406" type="line"/>
			<point x="642.5700683594" y="1031.2436523438"/>
			<point x="1005.2692260742" y="789.6924438477"/>
			<point x="1005.2692260742" y="528.31640625" type="qcurve" smooth="yes"/>
			<point x="1005.2692260742" y="275.6755371094"/>
			<point x="733.1387939453" y="-14.0007324219"/>
			<point x="548.9511108398" y="-14.0007324219" type="qcurve" smooth="yes"/>
			<point x="361.0604248047" y="-14.0007324219"/>
			<point x="61.3204956055" y="87.7403564453"/>
		</contour>
	</outline>
</glyph>
<glyph name="six" format="2">
	<unicode hex="0036"/>
	<advance width="1058"/>
	<outline>
		<contour>
			<point x="74.0007324219" y="651.1696777344" type="qcurve" smooth="yes"/>
			<point x="74.0007324219" y="1135.1817016602"/>
			<point x="547.4906005859" y="1593.8767089844"/>
			<point x="897.6453857422" y="1528.9753417969" type="qcurve"/>
			<point x="891.8299560547" y="1359.4013671875" type="line"/>
			<point x="539.0860595703" y="1409.9931030273"/>
			<point x="183.9556884766" y="1109.830078125"/>
			<point x="183.9556884766" y="630.5842285156" type="qcurve" smooth="yes"/>
			<point x="183.9556884766" y="541.6867675781"/>
			<point x="387.4356079102" y="100.9858398438"/>
			<point x="573.4000244141" y="100.9858398438" type="qcurve" smooth="yes"/>
			<point x="747.4765014648" y="100.9858398438"/>
			<point x="891.545715332" y="380.2777099609"/>
			<point x="891.545715332" y="434.0750732422" type="qcurve" smooth="yes"/>
			<point x="891.545715332" y="523.0206298828"/>
			<point x="748.2515258789" y="777.2607421875"/>
			<point x="574.6964111328" y="777.2607421875" type="qcurve" smooth="yes"/>
			<point x="466.5191040039" y="777.2607421875"/>
			<point x="371.7274169922" y="743.4270019531"/>
			<point x="345.0462646484" y="735.4919433594" type="qcurve"/>
			<point x="319.7388916016" y="844.4144287109" type="line"/>
			<point x="308.2554931641" y="853.1885986328"/>
			<point x="424.9700927734" y="922.4489746094"/>
			<point x="517.5230102539" y="922.4489746094" type="qcurve" smooth="yes"/>
			<point x="712.9255981445" y="922.4489746094"/>
			<point x="1014.0660400391" y="711.6085205078"/>
			<point x="1014.0660400391" y="491.7066650391" type="qcurve" smooth="yes"/>
			<point x="1014.0660400391" y="267.107421875"/>
			<point x="733.3693847656" y="-11.0007324219"/>
			<point x="569.4909057617" y="-11.0007324219" type="qcurve" smooth="yes"/>
			<point x="399.0140380859" y="-11.0007324219"/>
			<point x="74.0007324219" y="369.7044677734"/>
		</contour>
	</outline>
</glyph>
<glyph name="seven" format="2">
	<unicode hex="0037"/>
	<advance width="1188"/>
	<outline>
		<contour>
			<point x="24.1922607422" y="1184.883605957" type="line"/>
			<point x="1.5137329102" y="1506.076171875" type="line"/>
			<point x="1063.2297363281" y="1506.076171875" type="line"/>
			<point x="1063.2297363281" y="1481.8510742188" type="line"/>
			<point x="667.6910400391" y="706.0633544922" type="line"/>
			<point x="399.7741699219" y="-1.1822509766" type="line"/>
			<point x="260.1940917969" y="-1.1822509766" type="line"/>
			<point x="260.1940917969" y="39.8177490234" type="line"/>
			<point x="582.6168212891" y="720.5456542969" type="line"/>
			<point x="1016.7753295898" y="1399.3239746094" type="line"/>
			<point x="991.9155883789" y="1418.8831176758" type="line"/>
			<point x="185.3032226562" y="1418.8831176758" type="line"/>
			<point x="144.9956054688" y="1184.883605957" type="line"/>
		</contour>
	</outline>
</glyph>
<glyph name="eight" format="2">
	<unicode hex="0038"/>
	<advance width="1133"/>
	<outline>
		<contour>
			<point x="35.3583984375" y="408.9898681641" type="qcurve" smooth="yes"/>
			<point x="35.3583984375" y="606.5369262695"/>
			<point x="317.3555297852" y="842.5999755859"/>
			<point x="560.4181518555" y="912.8829345703" type="qcurve"/>
			<point x="650.0681762695" y="860.4916992188" type="line"/>
			<point x="509.4943847656" y="792.8422851562"/>
			<point x="381.9891357422" y="497.5357666016"/>
			<point x="381.9891357422" y="338.2475585938" type="qcurve" smooth="yes"/>
			<point x="381.9891357422" y="183.9785766602"/>
			<point x="474.2541503906" y="94.0310058594"/>
			<point x="614.624206543" y="94.0310058594" type="qcurve" smooth="yes"/>
			<point x="743.1663208008" y="94.0310058594"/>
			<point x="991.0971679688" y="221.2971191406"/>
			<point x="991.0971679688" y="374.8344726562" type="qcurve" smooth="yes"/>
			<point x="991.0971679688" y="527.2564086914"/>
			<point x="857.9426269531" y="724.322265625"/>
			<point x="731.4095458984" y="747.1408081055" type="qcurve" smooth="yes"/>
			<point x="415.0308837891" y="899.8494873047"/>
			<point x="177.282409668" y="1063.1119384766"/>
			<point x="180.282409668" y="1247.0344238281" type="qcurve" smooth="yes"/>
			<point x="183.282409668" y="1390.6235351562"/>
			<point x="394.2854614258" y="1531.8916015625"/>
			<point x="512.4956665039" y="1531.8916015625" type="qcurve" smooth="yes"/>
			<point x="684.5120239258" y="1531.8916015625"/>
			<point x="959.2508544922" y="1378.5832519531"/>
			<point x="959.2508544922" y="1226.0950927734" type="qcurve" smooth="yes"/>
			<point x="959.2508544922" y="1088.6530761719"/>
			<point x="714.9330444336" y="886.4749755859"/>
			<point x="566.0208129883" y="829.6707763672" type="qcurve"/>
			<point x="472.4346313477" y="879.3370361328" type="line"/>
			<point x="566.3411865234" y="960.7676391602"/>
			<point x="659.6133422852" y="1138.9230957031"/>
			<point x="660.1517944336" y="1235.2143554688" type="qcurve" smooth="yes"/>
			<point x="660.690246582" y="1353.0041503906"/>
			<point x="575.4214477539" y="1430.4248046875"/>
			<point x="493.588684082" y="1430.4248046875" type="qcurve" smooth="yes"/>
			<point x="380.6195678711" y="1430.4248046875"/>
			<point x="217.8261108398" y="1296.9609375"/>
			<point x="217.8261108398" y="1243.7571411133" type="qcurve" smooth="yes"/>
			<point x="217.8261108398" y="1116.4556884766"/>
			<point x="396.9499511719" y="950.3340454102"/>
			<point x="653.1666870117" y="844.7092285156" type="qcurve" smooth="yes"/>
			<point x="789.6110229492" y="807.9910888672"/>
			<point x="1067.818359375" y="627.8883056641"/>
			<point x="1067.818359375" y="426.9712524414" type="qcurve" smooth="yes"/>
			<point x="1067.818359375" y="241.7353515625"/>
			<point x="826.2395629883" y="-12.0007324219"/>
			<point x="619.8059692383" y="-12.0007324219" type="qcurve" smooth="yes"/>
			<point x="339.559387207" y="-12.0007324219"/>
			<point x="35.3583984375" y="220.0447387695"/>
		</contour>
	</outline>
</glyph>
<glyph name="nine" format="2">
	<unicode hex="0039"/>
	<advance width="1059"/>
	<outline>
		<contour>
			<point x="50.3248291016" y="1033.0428466797" type="qcurve" smooth="yes"/>
			<point x="50.3248291016" y="1253.9272460938"/>
			<point x="350.0846557617" y="1532.8227539062"/>
			<point x="498.6428222656" y="1532.8227539062" type="qcurve" smooth="yes"/>
			<point x="641.1567993164" y="1532.8227539062"/>
			<point x="986.4317016602" y="1185.6900634766"/>
			<point x="986.4317016602" y="869.2781982422" type="qcurve" smooth="yes"/>
			<point x="986.4317016602" y="403.8770751953"/>
			<point x="517.9968261719" y="-75.4896240234"/>
			<point x="161.4692993164" y="-13.4782104492" type="qcurve"/>
			<point x="170.257019043" y="155.1096191406" type="line"/>
			<point x="519.3304443359" y="99.8916625977"/>
			<point x="869.2291259766" y="410.5106201172"/>
			<point x="869.2291259766" y="889.2906494141" type="qcurve" smooth="yes"/>
			<point x="869.2291259766" y="1025.6488037109"/>
			<point x="673.762878418" y="1420.8361816406"/>
			<point x="487.7735595703" y="1420.8361816406" type="qcurve" smooth="yes"/>
			<point x="313.7219848633" y="1420.8361816406"/>
			<point x="164.5975341797" y="1187.2082519531"/>
			<point x="164.5975341797" y="1086.2545166016" type="qcurve" smooth="yes"/>
			<point x="164.5975341797" y="951.9645996094"/>
			<point x="357.1090698242" y="739.7813110352"/>
			<point x="546.0770263672" y="739.7813110352" type="qcurve" smooth="yes"/>
			<point x="591.4381713867" y="739.7813110352"/>
			<point x="683.8213500977" y="772.6226806641"/>
			<point x="710.1108398438" y="775.9652709961" type="qcurve"/>
			<point x="735.4182128906" y="670.6491088867" type="line"/>
			<point x="752.0667724609" y="674.6206665039"/>
			<point x="652.953918457" y="594.7833862305"/>
			<point x="497.1090087891" y="595.4422607422" type="qcurve" smooth="yes"/>
			<point x="349.2396240234" y="597.4188842773"/>
			<point x="50.3248291016" y="808.3234863281"/>
		</contour>
	</outline>
</glyph>
<glyph name="A" format="2">
	<unicode hex="0041"/>
	<advance width="1468"/>
	<outline>
		<contour>
			<point x="-82.6254882812" y="0" type="line"/>
			<point x="-84.6254882812" y="98.998046875" type="line"/>
			<point x="146.5310058594" y="142.998046875" type="line"/>
			<point x="309.1837768555" y="606.6204833984" type="line"/>
			<point x="643.0770874023" y="1500.7275390625" type="line"/>
			<point x="835.4241333008" y="1500.7275390625" type="line"/>
			<point x="1196.9359130859" y="538.4096679688" type="line"/>
			<point x="1321.2938842773" y="131.998046875" type="line"/>
			<point x="1497.5271606445" y="98.998046875" type="line"/>
			<point x="1497.5271606445" y="0" type="line"/>
			<point x="935.184387207" y="0" type="line"/>
			<point x="935.184387207" y="98.998046875" type="line"/>
			<point x="1122.1099853516" y="135.998046875" type="line"/>
			<point x="999.1927490234" y="563" type="line"/>
			<point x="776.1040649414" y="1227.9466552734" type="line"/>
			<point x="743.1400756836" y="1320.0230712891" type="line"/>
			<point x="743.1400756836" y="1320.0230712891" type="line"/>
			<point x="712.3870849609" y="1226.7854003906" type="line"/>
			<point x="430.2344970703" y="564.9022216797" type="line"/>
			<point x="311.4132080078" y="139.998046875" type="line"/>
			<point x="533.9541625977" y="98.998046875" type="line"/>
			<point x="533.9541625977" y="0" type="line"/>
		</contour>
		<contour>
			<point x="740" y="552" type="line"/>
			<point x="702.9122314453" y="596.2256469727" type="line"/>
			<point x="751.8667602539" y="472.1953735352" type="line"/>
			<point x="740" y="448" type="line"/>
		</contour>
		<contour>
			<point x="308.4742431641" y="472.1953735352" type="line"/>
			<point x="359.7366333008" y="594.6450195312" type="line"/>
			<point x="449.2651367188" y="613.8712158203" type="line"/>
			<point x="449.2651367188" y="496.3907470703" type="line"/>
		</contour>
	</outline>
	<anchor name="bottom" x="735" y="0"/>
	<anchor name="ogonek" x="1318" y="0"/>
	<anchor name="tonos" x="492" y="1500"/>
	<anchor name="top" x="753" y="1500"/>
</glyph>
<glyph name="B" format="2">
	<unicode hex="0042"/>
	<advance width="1098"/>
	<outline>
		<contour>
			<point x="80.9967041016" y="0" type="line"/>
			<point x="80.9967041016" y="98.998046875" type="line"/>
			<point x="289.9996337891" y="132.998046875" type="line"/>
			<point x="291.9996337891" y="743.6813964844" type="line"/>
			<point x="289.9996337891" y="1358.2822265625" type="line"/>
			<point x="80.9967041016" y="1392.2822265625" type="line"/>
			<point x="80.9967041016" y="1500" type="line"/>
			<point x="603.8821411133" y="1500" type="line" smooth="yes"/>
			<point x="782.4718017578" y="1500"/>
			<point x="976.4426879883" y="1312"/>
			<point x="976.4426879883" y="1157" type="qcurve" smooth="yes"/>
			<point x="976.4426879883" y="1015"/>
			<point x="812.7585449219" y="847"/>
			<point x="655.9616088867" y="823" type="qcurve"/>
			<point x="655.9616088867" y="816" type="line"/>
			<point x="824.9426879883" y="795"/>
			<point x="1193" y="604"/>
			<point x="1072.5505981445" y="431" type="qcurve" smooth="yes"/>
			<point x="1072.5505981445" y="250"/>
			<point x="759.0867919922" y="0"/>
			<point x="555.0806884766" y="0" type="qcurve" smooth="yes"/>
		</contour>
		<contour>
			<point x="456.0113525391" y="152.0328369141" type="line"/>
			<point x="485.7564697266" y="122.7077636719" type="line"/>
			<point x="610.3864746094" y="122.7077636719" type="line" smooth="yes"/>
			<point x="757.3864746094" y="122.7077636719"/>
			<point x="887.1526489258" y="324"/>
			<point x="887.1526489258" y="459" type="qcurve" smooth="yes"/>
			<point x="887.1526489258" y="567"/>
			<point x="765.1120605469" y="727.3885498047"/>
			<point x="677.1120605469" y="727.3885498047" type="qcurve" smooth="yes"/>
			<point x="464.9476318359" y="727.3885498047" type="line"/>
			<point x="452.0113525391" y="713.806640625" type="line"/>
		</contour>
		<contour>
			<point x="454.0113525391" y="849.7100830078" type="line"/>
			<point x="462.9635620117" y="841.5156860352" type="line"/>
			<point x="618.9085693359" y="841.5156860352" type="line" smooth="yes"/>
			<point x="723.9085693359" y="841.5156860352"/>
			<point x="817.0447387695" y="1030"/>
			<point x="817.0447387695" y="1151" type="qcurve" smooth="yes"/>
			<point x="817.0447387695" y="1300"/>
			<point x="723.7811279297" y="1368.582824707"/>
			<point x="635.7811279297" y="1368.582824707" type="qcurve" smooth="yes"/>
			<point x="479.7564697266" y="1368.582824707" type="line"/>
			<point x="456.0113525391" y="1350.2418212891" type="line"/>
		</contour>
	</outline>
	<anchor name="bottom" x="614" y="0"/>
	<anchor name="top" x="614" y="1500"/>
</glyph>
<glyph name="C" format="2">
	<unicode hex="0043"/>
	<advance width="1635"/>
	<outline>
		<contour>
			<point x="80.0009765625" y="755.0905761719" type="qcurve" smooth="yes"/>
			<point x="80.0009765625" y="1113.6369628906"/>
			<point x="468.84375" y="1519.8188476562"/>
			<point x="809.586730957" y="1519.8188476562" type="qcurve" smooth="yes"/>
			<point x="973.7321777344" y="1519.8188476562"/>
			<point x="1258.4942016602" y="1450.1818847656"/>
			<point x="1325.6677856445" y="1415" type="qcurve"/>
			<point x="1391.8629760742" y="1475.5" type="line"/>
			<point x="1497.4434814453" y="1475.5" type="line"/>
			<point x="1494.4434814453" y="1004" type="line"/>
			<point x="1359.3332519531" y="1004" type="line"/>
			<point x="1301.6199951172" y="1243" type="line" smooth="yes"/>
			<point x="1275.5974121094" y="1351.9094238281"/>
			<point x="1032.9659423828" y="1393.5629272461"/>
			<point x="874.4703979492" y="1393.5629272461" type="qcurve" smooth="yes"/>
			<point x="587.4703979492" y="1393.5629272461"/>
			<point x="274.5048828125" y="1131.0905761719"/>
			<point x="274.5048828125" y="779.0905761719" type="qcurve" smooth="yes"/>
			<point x="274.5048828125" y="499.0905761719"/>
			<point x="608.0814208984" y="126.3020019531"/>
			<point x="903.0814208984" y="126.3020019531" type="qcurve" smooth="yes"/>
			<point x="1130.0814208984" y="126.3020019531"/>
			<point x="1416.3112792969" y="299.2051391602"/>
			<point x="1472.5803222656" y="392.5606689453" type="qcurve"/>
			<point x="1579.8367919922" y="335.2717285156" type="line"/>
			<point x="1487.9359741211" y="176.2717285156"/>
			<point x="1097.9627075195" y="-15.7282714844"/>
			<point x="915.7241821289" y="-15.7282714844" type="qcurve" smooth="yes"/>
			<point x="580.7358398438" y="-15.7282714844"/>
			<point x="80.0009765625" y="372.9493408203"/>
		</contour>
	</outline>
	<anchor name="bottom" x="836" y="0"/>
	<anchor name="top" x="836" y="1500"/>
</glyph>
<glyph name="D" format="2">
	<unicode hex="0044"/>
	<advance width="1594"/>
	<outline>
		<contour>
			<point x="80.9967041016" y="0" type="line"/>
			<point x="80.9967041016" y="97.998046875" type="line"/>
			<point x="289.9996337891" y="136.998046875" type="line"/>
			<point x="291.9996337891" y="759" type="line"/>
			<point x="289.9996337891" y="1355.2822265625" type="line"/>
			<point x="80.9967041016" y="1392.2822265625" type="line"/>
			<point x="80.9967041016" y="1500" type="line"/>
			<point x="762.0739746094" y="1500" type="line" smooth="yes"/>
			<point x="1146.3513183594" y="1500"/>
			<point x="1509.7412719727" y="1165"/>
			<point x="1509.7412719727" y="777" type="qcurve" smooth="yes"/>
			<point x="1509.7412719727" y="395"/>
			<point x="1149.8015136719" y="0"/>
			<point x="820.3238525391" y="0" type="qcurve" smooth="yes"/>
		</contour>
		<contour>
			<point x="468.3341064453" y="126.7077636719" type="line"/>
			<point x="498.9039916992" y="123.2883911133"/>
			<point x="651.6533203125" y="114.7077636719"/>
			<point x="730.6178588867" y="114.7077636719" type="qcurve" smooth="yes"/>
			<point x="1004.6178588867" y="114.7077636719"/>
			<point x="1319.2112426758" y="423"/>
			<point x="1324.1475219727" y="752" type="qcurve" smooth="yes"/>
			<point x="1326.1315917969" y="1028"/>
			<point x="1013.1116943359" y="1376.4859619141"/>
			<point x="706.1116943359" y="1376.4859619141" type="qcurve" smooth="yes"/>
			<point x="646.7807617188" y="1376.4859619141"/>
			<point x="503.8402709961" y="1362.9053344727"/>
			<point x="468.3341064453" y="1356.4859619141" type="qcurve"/>
			<point x="465.3341064453" y="752" type="line"/>
		</contour>
	</outline>
	<anchor name="bottom" x="686" y="0"/>
	<anchor name="center" x="438" y="754"/>
	<anchor name="top" x="686" y="1500"/>
	<anchor name="liga" x="1590" y="0"/>
</glyph>
<glyph name="F" format="2">
	<unicode hex="0046"/>
	<advance width="1050"/>
	<outline>
		<contour>
			<point x="80.9967041016" y="0" type="line"/>
			<point x="80.9967041016" y="98.998046875" type="line"/>
			<point x="289.9996337891" y="131.998046875" type="line"/>
			<point x="291.9996337891" y="755" type="line"/>
			<point x="289.9996337891" y="1358.2822265625" type="line"/>
			<point x="80.9967041016" y="1392.2822265625" type="line"/>
			<point x="80.9967041016" y="1500" type="line"/>
			<point x="992.5009155273" y="1500" type="line"/>
			<point x="992.5009155273" y="1047.5503540039" type="line"/>
			<point x="879.4998168945" y="1047.5503540039" type="line"/>
			<point x="775.4998168945" y="1375.5503540039" type="line"/>
			<point x="498.3341064453" y="1375.5503540039" type="line"/>
			<point x="465.3341064453" y="1347.5503540039" type="line"/>
			<point x="463.3341064453" y="767" type="line"/>
			<point x="465.3341064453" y="135.998046875" type="line"/>
			<point x="713.1834716797" y="99.998046875" type="line"/>
			<point x="713.1834716797" y="0" type="line"/>
		</contour>
		<contour>
			<point x="424.1905517578" y="732.1298828125" type="line"/>
			<point x="424.1905517578" y="844.2894897461" type="line"/>
			<point x="649.4998168945" y="851.3538818359" type="line"/>
			<point x="733.4998168945" y="1007.3538818359" type="line"/>
			<point x="841.5009155273" y="1007.3538818359" type="line"/>
			<point x="841.5009155273" y="552.0654907227" type="line"/>
			<point x="733.4998168945" y="552.0654907227" type="line"/>
			<point x="649.4998168945" y="725.0654907227" type="line"/>
		</contour>
	</outline>
	<anchor name="bottom" x="578" y="0"/>
	<anchor name="top" x="622" y="1500"/>
</glyph>
<glyph name="I" format="2">
	<unicode hex="0049"/>
	<advance width="826"/>
	<outline>
		<contour>
			<point x="83.8079833984" y="0" type="line"/>
			<point x="83.8079833984" y="98.998046875" type="line"/>
			<point x="322.7341308594" y="133.998046875" type="line"/>
			<point x="324.7341308594" y="754" type="line"/>
			<point x="322.7341308594" y="1358.2822265625" type="line"/>
			<point x="83.8079833984" y="1392.2822265625" type="line"/>
			<point x="83.8079833984" y="1500" type="line"/>
			<point x="741.9947509766" y="1500" type="line"/>
			<point x="741.9947509766" y="1392.2822265625" type="line"/>
			<point x="503.0686035156" y="1358.2822265625" type="line"/>
			<point x="501.0686035156" y="754" type="line"/>
			<point x="503.0686035156" y="132.998046875" type="line"/>
			<point x="741.9947509766" y="98.998046875" type="line"/>
			<point x="741.9947509766" y="0" type="line"/>
		</contour>
	</outline>
	<anchor name="bottom" x="390" y="0"/>
	<anchor name="ogonek" x="526" y="0"/>
	<anchor name="top" x="390" y="1500"/>
	<anchor name="tonos" x="0" y="1500"/>
	<anchor name="yu_dash" x="380" y="755"/>
	<anchor name="_Yeru_I" x="82" y="0"/>
	<anchor name="liga" x="780" y="0"/>
</glyph>
<glyph name="O" format="2">
	<unicode hex="004F"/>
	<advance width="1657"/>
	<outline>
		<contour>
			<point x="80.0009765625" y="751" type="qcurve" smooth="yes"/>
			<point x="80.0009765625" y="1100.7275390625"/>
			<point x="501.3931884766" y="1519.8188476562"/>
			<point x="828.460144043" y="1519.8188476562" type="qcurve" smooth="yes"/>
			<point x="1159.5748901367" y="1519.8188476562"/>
			<point x="1576.9989624023" y="1119.8184814453"/>
			<point x="1576.9989624023" y="764" type="qcurve" smooth="yes"/>
			<point x="1576.9989624023" y="414.7268066406"/>
			<point x="1164.2044677734" y="-15.8192138672"/>
			<point x="826.4920043945" y="-15.8192138672" type="qcurve" smooth="yes"/>
			<point x="494.604675293" y="-15.8192138672"/>
			<point x="80.0009765625" y="398.7268066406"/>
		</contour>
		<contour>
			<point x="268.5048828125" y="765" type="qcurve" smooth="yes"/>
			<point x="268.5048828125" y="496"/>
			<point x="585.4920043945" y="117.7592163086"/>
			<point x="828.4920043945" y="117.7592163086" type="qcurve" smooth="yes"/>
			<point x="1094.4920043945" y="117.7592163086"/>
			<point x="1390.4950561523" y="442"/>
			<point x="1390.4950561523" y="766" type="qcurve" smooth="yes"/>
			<point x="1390.4950561523" y="1026"/>
			<point x="1077.4920043945" y="1386.5953979492"/>
			<point x="826.4920043945" y="1386.5953979492" type="qcurve" smooth="yes"/>
			<point x="555.4920043945" y="1386.5953979492"/>
			<point x="268.5048828125" y="1047"/>
		</contour>
	</outline>
	<anchor name="bottom" x="832" y="0"/>
	<anchor name="center" x="832" y="750"/>
	<anchor name="ogonek" x="1064" y="0"/>
	<anchor name="top" x="832" y="1500"/>
	<anchor name="topright" x="1028" y="1500"/>
	<anchor name="tonos" x="140" y="1500"/>
	<anchor name="_yu_dash" x="169" y="755"/>
</glyph>
<glyph name="S" format="2">
	<unicode hex="0053"/>
	<advance width="984"/>
	<outline>
		<contour>
			<point x="19.6813964844" y="12.5" type="line"/>
			<point x="19.6813964844" y="527.9334106445" type="line"/>
			<point x="148.8461914062" y="527.9334106445" type="line"/>
			<point x="172.8461914062" y="383.9334106445" type="line" smooth="yes"/>
			<point x="194.0280761719" y="246.0239868164"/>
			<point x="360.2873535156" y="109.1145629883"/>
			<point x="498.1485595703" y="109.1145629883" type="qcurve" smooth="yes"/>
			<point x="696.1485595703" y="109.1145629883"/>
			<point x="800.6754150391" y="347.4390258789"/>
			<point x="800.6754150391" y="326.2458496094" type="qcurve" smooth="yes"/>
			<point x="800.6754150391" y="424.659362793"/>
			<point x="619.9493408203" y="610.7221679688"/>
			<point x="391.0141601562" y="719.5377807617" type="qcurve" smooth="yes"/>
			<point x="247.104675293" y="821.3269042969"/>
			<point x="72.5208740234" y="963.3614501953"/>
			<point x="72.5208740234" y="1151.9844970703" type="qcurve" smooth="yes"/>
			<point x="72.5208740234" y="1308.2856445312"/>
			<point x="313.7974243164" y="1521.8188476562"/>
			<point x="429.6496582031" y="1520.8188476562" type="qcurve" smooth="yes"/>
			<point x="543.0738525391" y="1519.8188476562"/>
			<point x="696.1558837891" y="1435.3184814453"/>
			<point x="714.5814208984" y="1405" type="qcurve"/>
			<point x="752.8542480469" y="1479.5" type="line"/>
			<point x="853.6916503906" y="1479.5" type="line"/>
			<point x="853.6916503906" y="979.8409423828" type="line"/>
			<point x="723.5814208984" y="979.8409423828" type="line"/>
			<point x="685.5814208984" y="1167.8409423828" type="line" smooth="yes"/>
			<point x="670.3358154297" y="1239.1532592773"/>
			<point x="568.444519043" y="1379.6597900391"/>
			<point x="424.5406494141" y="1379.6597900391" type="qcurve" smooth="yes"/>
			<point x="262.5406494141" y="1379.6597900391"/>
			<point x="187.505859375" y="1193.6884765625"/>
			<point x="187.505859375" y="1208.6879272461" type="qcurve" smooth="yes"/>
			<point x="187.505859375" y="1207.8874511719"/>
			<point x="350.0137939453" y="1006.0169677734"/>
			<point x="603.2286987305" y="877.6514282227" type="qcurve" smooth="yes"/>
			<point x="737.217956543" y="789.6870727539"/>
			<point x="973.794128418" y="564.6020507812"/>
			<point x="973.794128418" y="388.3969726562" type="qcurve" smooth="yes"/>
			<point x="973.794128418" y="235.3544921875"/>
			<point x="717.5192260742" y="-23.8188476562"/>
			<point x="527.5989379883" y="-23.8188476562" type="qcurve" smooth="yes"/>
			<point x="403.0780639648" y="-23.8188476562"/>
			<point x="165.9697265625" y="41.6362304688"/>
			<point x="156.0277099609" y="79" type="qcurve"/>
			<point x="116.5187988281" y="12.5" type="line"/>
		</contour>
	</outline>
	<anchor name="bottom" x="599" y="0"/>
	<anchor name="top" x="514" y="1500"/>
</glyph>
<glyph name="Z" format="2">
	<unicode hex="005A"/>
	<advance width="992"/>
	<outline>
		<contour>
			<point x="45.859375" y="0" type="line"/>
			<point x="17.5049438477" y="104.6439208984" type="line"/>
			<point x="695.4575195312" y="1343.5503540039" type="line"/>
			<point x="688.4575195312" y="1365.5503540039" type="line"/>
			<point x="271.48046875" y="1365.5503540039" type="line"/>
			<point x="192.4479980469" y="1110" type="line"/>
			<point x="69.1195068359" y="1110" type="line"/>
			<point x="69.1195068359" y="1500" type="line"/>
			<point x="900.9366455078" y="1500" type="line"/>
			<point x="900.9366455078" y="1385.2916870117" type="line"/>
			<point x="210.1846313477" y="163.643371582" type="line"/>
			<point x="215.1846313477" y="136.643371582" type="line"/>
			<point x="753.1450805664" y="136.643371582" type="line"/>
			<point x="854.3068847656" y="359.5" type="line"/>
			<point x="974.3079833984" y="359.5" type="line"/>
			<point x="936.3079833984" y="0" type="line"/>
		</contour>
	</outline>
	<anchor name="bottom" x="583" y="0"/>
	<anchor name="top" x="583" y="1500"/>
	<anchor name="_liga" x="0" y="0"/>
</glyph>
<glyph name="a" format="2">
	<unicode hex="0061"/>
	<advance width="1119"/>
	<outline>
		<contour>
			<point x="51.7124023438" y="240.4506835938" type="qcurve" smooth="yes"/>
			<point x="51.7124023438" y="401.8126220703"/>
			<point x="448.3510033392" y="595.5196611958"/>
			<point x="728.2391318044" y="622.3220214844" type="qcurve"/>
			<point x="731.2391318044" y="545.6060791016" type="line"/>
			<point x="514.201585339" y="531.0375897808"/>
			<point x="222.3374023438" y="374.9173583984"/>
			<point x="223.3374023438" y="292.662109375" type="qcurve" smooth="yes"/>
			<point x="224.3374023438" y="168.9125976562"/>
			<point x="325.4871826172" y="108.8873291016"/>
			<point x="408.3331298828" y="108.8873291016" type="qcurve" smooth="yes"/>
			<point x="484.2785644531" y="108.8873291016"/>
			<point x="710.3552246094" y="185.9929199219"/>
			<point x="731.4306640625" y="226.7492675781" type="qcurve"/>
			<point x="724.4306640625" y="665.3614501953" type="line" smooth="yes"/>
			<point x="722.4306640625" y="859.2888183594"/>
			<point x="603.740234375" y="932.3283691406"/>
			<point x="500.3509521484" y="932.3283691406" type="qcurve" smooth="yes"/>
			<point x="391.1400146484" y="932.3283691406"/>
			<point x="244.8077392578" y="901.2043457031"/>
			<point x="242.4096679688" y="910.6778564453" type="qcurve"/>
			<point x="236.9698486328" y="890.5372314453"/>
			<point x="287.2113037109" y="828.7199707031"/>
			<point x="291.7882080078" y="781.8786621094" type="qcurve" smooth="yes"/>
			<point x="303.4614257812" y="736.0661621094"/>
			<point x="243.2655029297" y="671.8161621094"/>
			<point x="199.3280029297" y="671.8161621094" type="qcurve" smooth="yes"/>
			<point x="164.7030029297" y="671.8161621094"/>
			<point x="111.7257080078" y="743.4924316406"/>
			<point x="113.7257080078" y="807.0152587891" type="qcurve" smooth="yes"/>
			<point x="116.7257080078" y="905.9359130859"/>
			<point x="295.6008300781" y="1028.8168945312"/>
			<point x="489.8983154297" y="1028.8168945312" type="qcurve" smooth="yes"/>
			<point x="689.7611083984" y="1028.8168945312"/>
			<point x="889.4931640625" y="863.8970947266"/>
			<point x="891.4931640625" y="670.9437255859" type="qcurve" smooth="yes"/>
			<point x="897.4931640625" y="106.998046875" type="line"/>
			<point x="1053.8690185547" y="78.998046875" type="line"/>
			<point x="1053.8690185547" y="0" type="line"/>
			<point x="779.6181640625" y="0" type="line"/>
			<point x="736.6181640625" y="40" type="line"/>
			<point x="719.7176513672" y="74.7576904297" type="line"/>
			<point x="678.0729980469" y="33.7464599609"/>
			<point x="402.5989990234" y="-18.2731933594"/>
			<point x="260.1560058594" y="-18.2731933594" type="qcurve" smooth="yes"/>
			<point x="212.7269287109" y="-18.2731933594"/>
			<point x="51.7124023438" y="112.7314453125"/>
		</contour>
	</outline>
	<anchor name="bottom" x="548" y="0"/>
	<anchor name="ogonek" x="878" y="0"/>
	<anchor name="top" x="514" y="1000"/>
</glyph>
<glyph name="b" format="2">
	<unicode hex="0062"/>
	<advance width="1054"/>
	<outline>
		<contour>
			<point x="125.5684204102" y="0" type="line"/>
			<point x="125.5684204102" y="577" type="line"/>
			<point x="127.7559204102" y="1398.103515625" type="line"/>
			<point x="-52.0791625977" y="1435.103515625" type="line"/>
			<point x="-52.0791625977" y="1522.0012207031" type="line"/>
			<point x="203.1934204102" y="1536.0012207031" type="line"/>
			<point x="231.1934204102" y="1534.0012207031" type="line"/>
			<point x="280.1934204102" y="1489.0012207031" type="line"/>
			<point x="280.1934204102" y="930.1945800781" type="line"/>
			<point x="281.9979858398" y="951.6881103516"/>
			<point x="459.7142944336" y="1025.6350097656"/>
			<point x="585.459777832" y="1025.6350097656" type="qcurve" smooth="yes"/>
			<point x="759.8366088867" y="1025.6350097656"/>
			<point x="988.3102416992" y="805.3409423828"/>
			<point x="988.3102416992" y="536.8148193359" type="qcurve" smooth="yes"/>
			<point x="988.3102416992" y="257.3361816406"/>
			<point x="772.6231079102" y="-15.0913085938"/>
			<point x="553.1817016602" y="-15.0913085938" type="qcurve" smooth="yes"/>
			<point x="426.8130493164" y="-15.0913085938"/>
			<point x="275.3375854492" y="39.1343994141"/>
			<point x="235.6232299805" y="81.8282470703" type="qcurve"/>
			<point x="175.2521362305" y="0" type="line"/>
		</contour>
		<contour>
			<point x="279.1934204102" y="366.6412353516" type="line"/>
			<point x="277.1934204102" y="130.1170654297" type="line"/>
			<point x="297.6985473633" y="118.5252685547"/>
			<point x="481.3534545898" y="102.7677001953"/>
			<point x="549.6425170898" y="102.7677001953" type="qcurve" smooth="yes"/>
			<point x="699.6425170898" y="102.7677001953"/>
			<point x="828.9977416992" y="386.1071777344"/>
			<point x="828.9977416992" y="484.9080810547" type="qcurve" smooth="yes"/>
			<point x="828.9977416992" y="607.9644775391"/>
			<point x="696.9647827148" y="881.9982910156"/>
			<point x="541.9647827148" y="881.9982910156" type="qcurve" smooth="yes"/>
			<point x="448.9901733398" y="881.9982910156"/>
			<point x="313.6602172852" y="836.7736816406"/>
			<point x="283.1934204102" y="807.8218994141" type="qcurve"/>
		</contour>
	</outline>
	<anchor name="bottom" x="571" y="0"/>
	<anchor name="top" x="571" y="1533"/>
</glyph>
<glyph name="c" format="2">
	<unicode hex="0063"/>
	<advance width="958"/>
	<outline>
		<contour>
			<point x="64.0007324219" y="490.5712890625" type="qcurve" smooth="yes"/>
			<point x="64.0007324219" y="771.1094970703"/>
			<point x="342.5476074219" y="1030.0034179688"/>
			<point x="559.669921875" y="1030.0034179688" type="qcurve" smooth="yes"/>
			<point x="653.8129882812" y="1030.0034179688"/>
			<point x="686.7919921875" y="1008.4477539062"/>
			<point x="733.2514648438" y="990.4106445312" type="qcurve"/>
			<point x="780.85546875" y="1002.2963867188" type="line"/>
			<point x="860.2312011719" y="1002.2963867188" type="line"/>
			<point x="849.2312011719" y="623.8084716797" type="line"/>
			<point x="756.3061523438" y="623.8084716797" type="line"/>
			<point x="709.4428710938" y="788.3944091797" type="line" smooth="yes"/>
			<point x="685.2639160156" y="848.5054931641"/>
			<point x="582.0166015625" y="906.3944091797"/>
			<point x="528.9909667969" y="906.3944091797" type="qcurve" smooth="yes"/>
			<point x="347.9909667969" y="906.3944091797"/>
			<point x="250.1882324219" y="649.2540893555"/>
			<point x="250.1882324219" y="482.0013427734" type="qcurve" smooth="yes"/>
			<point x="250.1882324219" y="386.2153930664"/>
			<point x="387.9583740234" y="155.3679199219"/>
			<point x="596.1252441406" y="155.3679199219" type="qcurve" smooth="yes"/>
			<point x="716.1055908203" y="155.3679199219"/>
			<point x="856.9763183594" y="227.6456298828"/>
			<point x="910.0207519531" y="290.1462402344" type="qcurve"/>
			<point x="971.7741699219" y="240.9992675781" type="line"/>
			<point x="909.1569824219" y="140.9992675781"/>
			<point x="730.1140136719" y="-14.0007324219"/>
			<point x="570.8249511719" y="-14.0007324219" type="qcurve" smooth="yes"/>
			<point x="364.3386230469" y="-14.0007324219"/>
			<point x="64.0007324219" y="272.310546875"/>
		</contour>
	</outline>
	<anchor name="bottom" x="563" y="0"/>
	<anchor name="top" x="534" y="1000"/>
</glyph>
<glyph name="d" format="2">
	<unicode hex="0064"/>
	<advance width="1183"/>
	<outline>
		<contour>
			<point x="65.8674316406" y="490.2064208984" type="qcurve" smooth="yes"/>
			<point x="65.8674316406" y="733.0502929688"/>
			<point x="333.9238202495" y="1022.6350097656"/>
			<point x="588.4021468624" y="1022.6350097656" type="qcurve" smooth="yes"/>
			<point x="661.1831448462" y="1022.6350097656"/>
			<point x="775.1389160156" y="993.9572753906"/>
			<point x="813.7463378906" y="978.4152832031" type="qcurve"/>
			<point x="800.4807128906" y="1399.103515625" type="line"/>
			<point x="599.6456298828" y="1432.103515625" type="line"/>
			<point x="599.6456298828" y="1522.0012207031" type="line"/>
			<point x="929.5393066406" y="1534.0012207031" type="line"/>
			<point x="962.5393066406" y="1534.0012207031" type="line"/>
			<point x="982.5393066406" y="1488.0012207031" type="line"/>
			<point x="989.5393066406" y="500.1295166016" type="line"/>
			<point x="994.5393066406" y="105.998046875" type="line"/>
			<point x="1150.2125244141" y="78.998046875" type="line"/>
			<point x="1150.2125244141" y="0" type="line"/>
			<point x="834.2072753906" y="0" type="line"/>
			<point x="822.2346191406" y="16" type="line"/>
			<point x="807.6784825479" y="85.8038330078" type="line"/>
			<point x="781.7542133946" y="43.3950195312"/>
			<point x="616.7276886971" y="-9.8184814453"/>
			<point x="506.2104255922" y="-9.8184814453" type="qcurve" smooth="yes"/>
			<point x="314.7909447454" y="-9.8184814453"/>
			<point x="65.8674316406" y="244.1968994141"/>
		</contour>
		<contour>
			<point x="246.6799316406" y="513.9080810547" type="qcurve" smooth="yes"/>
			<point x="246.6799316406" y="426.0241699219"/>
			<point x="409.6604003906" y="96.9664306641"/>
			<point x="561.5495605469" y="96.5405273438" type="qcurve" smooth="yes"/>
			<point x="667.9162597656" y="96.1146240234"/>
			<point x="801.1387939453" y="151.7548828125"/>
			<point x="848.7893066406" y="211.2486572266" type="qcurve"/>
			<point x="854.7072753906" y="513.3614501953" type="line"/>
			<point x="856.7072753906" y="804.2196044922" type="line"/>
			<point x="819.3161621094" y="856.1206054688"/>
			<point x="680.0845947266" y="937.6832275391"/>
			<point x="562.7587890625" y="936.6832275391" type="qcurve" smooth="yes"/>
			<point x="403.8696289062" y="935.6832275391"/>
			<point x="246.6799316406" y="556.9370117188"/>
		</contour>
	</outline>
	<anchor name="bottom" x="604" y="0"/>
	<anchor name="center" x="876" y="1202"/>
	<anchor name="top" x="604" y="1534"/>
	<anchor name="topright" x="961" y="1000"/>
	<anchor name="liga" x="1207" y="0"/>
</glyph>
<glyph name="e" format="2">
	<unicode hex="0065"/>
	<advance width="1033"/>
	<outline>
		<contour>
			<point x="65.5340576172" y="513.7429199219" type="qcurve" smooth="yes"/>
			<point x="65.5340576172" y="774.7653808594"/>
			<point x="325.0867919922" y="1029.5500488281"/>
			<point x="536.6546630859" y="1029.5500488281" type="qcurve" smooth="yes"/>
			<point x="725.8674316406" y="1029.5500488281"/>
			<point x="969.2247314453" y="790.2028808594"/>
			<point x="988.3477783203" y="582.6574707031" type="qcurve"/>
			<point x="992.0352783203" y="499.6213378906" type="line"/>
			<point x="214.0965576172" y="499.6213378906" type="line"/>
			<point x="213.4090576172" y="594.8604736328" type="line"/>
			<point x="823.5977783203" y="594.8604736328" type="line"/>
			<point x="804.8575439453" y="768.0614013672"/>
			<point x="601.5711669922" y="916.2561035156"/>
			<point x="500.5711669922" y="916.2561035156" type="qcurve" smooth="yes"/>
			<point x="390.5711669922" y="916.2561035156"/>
			<point x="243.9206542969" y="735.7283935547"/>
			<point x="244.3465576172" y="540.8679199219" type="qcurve" smooth="yes"/>
			<point x="244.7724609375" y="388.3405151367"/>
			<point x="405.1629638672" y="148.4974365234"/>
			<point x="568.1629638672" y="148.4974365234" type="qcurve" smooth="yes"/>
			<point x="674.3797607422" y="148.4974365234"/>
			<point x="846.4696044922" y="239.8872070312"/>
			<point x="875.9291992188" y="322.5360107422" type="qcurve"/>
			<point x="941.5555419922" y="273.8149414062" type="line"/>
			<point x="941.578125" y="149.4812011719"/>
			<point x="690.2879638672" y="-11.0007324219"/>
			<point x="557.1492919922" y="-11.0007324219" type="qcurve" smooth="yes"/>
			<point x="352.6610107422" y="-11.0007324219"/>
			<point x="65.5340576172" y="268.2545166016"/>
		</contour>
	</outline>
	<anchor name="bottom" x="578" y="0"/>
	<anchor name="ogonek" x="744" y="0"/>
	<anchor name="top" x="539" y="1000"/>
</glyph>
<glyph name="f" format="2">
	<unicode hex="0066"/>
	<advance width="698"/>
	<outline>
		<contour>
			<point x="82.5811157227" y="0" type="line"/>
			<point x="82.5811157227" y="74.998046875" type="line"/>
			<point x="252.0918579102" y="109.998046875" type="line"/>
			<point x="262.0918579102" y="502" type="line"/>
			<point x="255.0918579102" y="836.6832275391" type="line"/>
			<point x="117.424987793" y="859.6832275391" type="line"/>
			<point x="117.424987793" y="964.2922363281" type="line"/>
			<point x="255.0918579102" y="980.2922363281" type="line"/>
			<point x="255.0918579102" y="1279.6466064453" type="line" smooth="yes"/>
			<point x="252.7227172852" y="1423.1466064453"/>
			<point x="403.0761108398" y="1549.2091064453"/>
			<point x="487.0802612305" y="1549.2091064453" type="qcurve" smooth="yes"/>
			<point x="546.6825561523" y="1549.2091064453"/>
			<point x="580.0783691406" y="1512.7930908203"/>
			<point x="615.0393676758" y="1497.4711914062" type="qcurve" smooth="yes"/>
			<point x="653.8596801758" y="1474.8586425781" type="line"/>
			<point x="649.4212036133" y="1337.3701171875" type="line"/>
			<point x="611.9397583008" y="1349.3104248047" type="line" smooth="yes"/>
			<point x="586.7294311523" y="1360.2604980469"/>
			<point x="533.057434082" y="1369.1107177734"/>
			<point x="502.0764770508" y="1369.1107177734" type="qcurve" smooth="yes"/>
			<point x="437.9840698242" y="1369.1107177734"/>
			<point x="391.3872070312" y="1345.1508789062"/>
			<point x="393.3418579102" y="1334.8708496094" type="qcurve" smooth="yes"/>
			<point x="393.3418579102" y="982.2922363281" type="line"/>
			<point x="611.2924194336" y="982.2922363281" type="line"/>
			<point x="611.2924194336" y="858.6832275391" type="line"/>
			<point x="393.3418579102" y="856.6832275391" type="line"/>
			<point x="393.3418579102" y="490" type="line"/>
			<point x="393.3418579102" y="108.998046875" type="line"/>
			<point x="594.7171020508" y="74.998046875" type="line"/>
			<point x="594.7171020508" y="0" type="line"/>
		</contour>
	</outline>
	<anchor name="bottom" x="314" y="0"/>
	<anchor name="top" x="314" y="1536"/>
</glyph>
<glyph name="g" format="2">
	<unicode hex="0067"/>
	<advance width="894"/>
	<outline>
		<contour>
			<point x="-0.7817382812" y="-227.2966308594" type="qcurve" smooth="yes"/>
			<point x="-0.7817382812" y="-140.1146240234"/>
			<point x="72.1143798828" y="-16.5625"/>
			<point x="182.3479003906" y="75.392578125" type="qcurve"/>
			<point x="346.6527808405" y="49.6225585938" type="line"/>
			<point x="187.0939429499" y="-52.9047851562"/>
			<point x="108.4682617188" y="-192.4432373047"/>
			<point x="108.4682617188" y="-222.005859375" type="qcurve" smooth="yes"/>
			<point x="108.4682617188" y="-333.0517578125"/>
			<point x="234.4044189453" y="-408.2517089844"/>
			<point x="484.5124511719" y="-408.2517089844" type="qcurve" smooth="yes"/>
			<point x="611.8216552734" y="-408.2517089844"/>
			<point x="809.3022460938" y="-345.3897705078"/>
			<point x="809.3022460938" y="-249.009765625" type="qcurve" smooth="yes"/>
			<point x="809.3022460938" y="-168.8732910156"/>
			<point x="557.3413085938" y="-74.3013916016"/>
			<point x="361.0991210938" y="-46.5903320312" type="qcurve" smooth="yes"/>
			<point x="197.0443115234" y="-13.2535400391"/>
			<point x="28.1081936743" y="74.7764892578"/>
			<point x="28.1081936743" y="153.5578613281" type="qcurve" smooth="yes"/>
			<point x="28.1081936743" y="196.9602523312"/>
			<point x="157.313960906" y="332.2898106729"/>
			<point x="264.0838111139" y="373.0947265625" type="qcurve"/>
			<point x="286.4107666016" y="324.9984130859" type="line"/>
			<point x="213.3822021484" y="297.927734375"/>
			<point x="106.5678710938" y="253.5145263672"/>
			<point x="106.5678710938" y="199.9689941406" type="qcurve" smooth="yes"/>
			<point x="106.5678710938" y="147.5798339844"/>
			<point x="307.4971175656" y="127.3088378906"/>
			<point x="497.1935641382" y="98.5346679688" type="qcurve" smooth="yes"/>
			<point x="718.4582440776" y="63.3469238281"/>
			<point x="942.4272460938" y="-13.8083496094"/>
			<point x="941.7397460938" y="-166.4093017578" type="qcurve" smooth="yes"/>
			<point x="941.0522460938" y="-312.4979248047"/>
			<point x="695.1245117188" y="-491.8793945312"/>
			<point x="455.0698242188" y="-491.8793945312" type="qcurve" smooth="yes"/>
			<point x="206.2084960938" y="-491.8793945312"/>
			<point x="-0.7817382812" y="-350.4675292969"/>
		</contour>
		<contour>
			<point x="51.2846679688" y="634.3813476562" type="qcurve" smooth="yes"/>
			<point x="51.2846679688" y="809.3095703125"/>
			<point x="256.6303710938" y="1024.4591064453"/>
			<point x="429.3862304688" y="1024.4591064453" type="qcurve" smooth="yes"/>
			<point x="618.6420898438" y="1024.4591064453"/>
			<point x="828.5991210938" y="815.3095703125"/>
			<point x="829.5991210938" y="639.6080322266" type="qcurve" smooth="yes"/>
			<point x="830.5991210938" y="464.1966552734"/>
			<point x="617.6791992188" y="235.7867431641"/>
			<point x="444.7280273438" y="235.7867431641" type="qcurve" smooth="yes"/>
			<point x="260.3061523438" y="235.7867431641"/>
			<point x="51.2846679688" y="439.6798095703"/>
		</contour>
		<contour>
			<point x="223.7221679688" y="644.5515136719" type="qcurve" smooth="yes"/>
			<point x="223.7221679688" y="593.3208618164"/>
			<point x="341.1108398438" y="331.2475585938"/>
			<point x="455.1108398438" y="331.2475585938" type="qcurve" smooth="yes"/>
			<point x="562.1108398438" y="331.2475585938"/>
			<point x="662.7866210938" y="591.0103149414"/>
			<point x="662.7866210938" y="639.3891601562" type="qcurve" smooth="yes"/>
			<point x="662.7866210938" y="684.6198120117"/>
			<point x="543.3706054688" y="921.8874511719"/>
			<point x="426.3706054688" y="921.8874511719" type="qcurve" smooth="yes"/>
			<point x="330.3706054688" y="921.8874511719"/>
			<point x="223.7221679688" y="682.2080688477"/>
		</contour>
		<contour>
			<point x="517.8569335938" y="907.7360839844" type="line"/>
			<point x="512.6761474609" y="982.5493164062" type="line"/>
			<point x="883.4721679688" y="1105.5493164062" type="line"/>
			<point x="883.4721679688" y="914.9029541016" type="line"/>
		</contour>
	</outline>
	<anchor name="bottom" x="524" y="-416"/>
	<anchor name="top" x="484" y="1000"/>
</glyph>
<glyph name="h" format="2">
	<unicode hex="0068"/>
	<advance width="1260"/>
	<outline>
		<contour>
			<point x="60.3375854492" y="0" type="line"/>
			<point x="60.3375854492" y="78.998046875" type="line"/>
			<point x="206.2811889648" y="106.998046875" type="line"/>
			<point x="208.2811889648" y="518.9522705078" type="line"/>
			<point x="198.2811889648" y="1400.103515625" type="line"/>
			<point x="27.1217651367" y="1435.103515625" type="line"/>
			<point x="27.1217651367" y="1522.0012207031" type="line"/>
			<point x="295.2811889648" y="1535.0012207031" type="line"/>
			<point x="330.2811889648" y="1535.0012207031" type="line"/>
			<point x="371.2811889648" y="1487.0012207031" type="line"/>
			<point x="363.2811889648" y="845.4410400391" type="line"/>
			<point x="385.6870727539" y="904.0920410156"/>
			<point x="568.7169799805" y="1024.0034179688"/>
			<point x="700.6907348633" y="1024.0034179688" type="qcurve" smooth="yes"/>
			<point x="872.2180786133" y="1024.0034179688"/>
			<point x="1039.3023071289" y="886.7414550781"/>
			<point x="1039.3023071289" y="783.1905517578" type="qcurve" smooth="yes"/>
			<point x="1039.3023071289" y="711.7360839844"/>
			<point x="1037.3023071289" y="645.9696044922"/>
			<point x="1037.3023071289" y="595.9522705078" type="qcurve" smooth="yes"/>
			<point x="1042.3023071289" y="105.998046875" type="line"/>
			<point x="1196.2998657227" y="78.998046875" type="line"/>
			<point x="1196.2998657227" y="0" type="line"/>
			<point x="735.5481567383" y="0" type="line"/>
			<point x="735.5481567383" y="71.998046875" type="line"/>
			<point x="859.3023071289" y="98.998046875" type="line"/>
			<point x="861.3023071289" y="521.9522705078" type="line"/>
			<point x="861.3023071289" y="734.6112060547" type="line" smooth="yes"/>
			<point x="861.3023071289" y="809.1380615234"/>
			<point x="771.389831543" y="851.4459228516"/>
			<point x="668.3864135742" y="851.4459228516" type="qcurve" smooth="yes"/>
			<point x="582.3821411133" y="851.4459228516"/>
			<point x="417.1068725586" y="805.9797363281"/>
			<point x="373.2811889648" y="729.638671875" type="qcurve"/>
			<point x="373.2811889648" y="523.7255859375" type="line"/>
			<point x="375.2811889648" y="106.998046875" type="line"/>
			<point x="507.5221557617" y="78.998046875" type="line"/>
			<point x="507.5221557617" y="0" type="line"/>
		</contour>
	</outline>
	<anchor name="bottom" x="629" y="0"/>
	<anchor name="center" x="347" y="1202"/>
	<anchor name="top" x="304" y="1534"/>
</glyph>
<glyph name="k" format="2">
	<unicode hex="006B"/>
	<advance width="1041"/>
	<outline>
		<contour>
			<point x="74.9085693359" y="0" type="line"/>
			<point x="74.9085693359" y="78.998046875" type="line"/>
			<point x="221.8521728516" y="106.998046875" type="line"/>
			<point x="221.8521728516" y="482" type="line"/>
			<point x="212.8521728516" y="1399.103515625" type="line"/>
			<point x="41.6927490234" y="1435.103515625" type="line"/>
			<point x="41.6927490234" y="1508.4880371094" type="line"/>
			<point x="304.7271728516" y="1536.0012207031" type="line"/>
			<point x="340.7271728516" y="1536.0012207031" type="line"/>
			<point x="381.7271728516" y="1487.0012207031" type="line"/>
			<point x="383.7271728516" y="551" type="line"/>
			<point x="386.7271728516" y="107.998046875" type="line"/>
			<point x="518.9681396484" y="78.998046875" type="line"/>
			<point x="518.9681396484" y="0" type="line"/>
		</contour>
		<contour>
			<point x="289.4771728516" y="443.7457885742" type="line"/>
			<point x="262.3521728516" y="506.3823852539" type="line"/>
			<point x="721.0274658203" y="889.0515136719" type="line"/>
			<point x="516.7055664062" y="919.0515136719" type="line"/>
			<point x="516.7055664062" y="1003.5493164062" type="line"/>
			<point x="1026.6760253906" y="1003.5493164062" type="line"/>
			<point x="1026.6760253906" y="919.0515136719" type="line"/>
			<point x="818.921875" y="889.0515136719" type="line"/>
		</contour>
		<contour>
			<point x="461.7382202148" y="588.1093139648" type="line"/>
			<point x="571.4915161133" y="723.7362060547" type="line"/>
			<point x="992.639465332" y="105.998046875" type="line"/>
			<point x="1107.7731323242" y="78.998046875" type="line"/>
			<point x="1107.7731323242" y="0" type="line"/>
			<point x="764.5859985352" y="0" type="line"/>
			<point x="750.2783813477" y="55.4052734375" type="line"/>
			<point x="806.3862915039" y="106.6480712891" type="line"/>
		</contour>
	</outline>
	<anchor name="bottom" x="608" y="0"/>
	<anchor name="top" x="578" y="1534"/>
</glyph>
<glyph name="m" format="2">
	<unicode hex="006D"/>
	<advance width="1976"/>
	<outline>
		<contour>
			<point x="76.8544311523" y="0" type="line"/>
			<point x="76.8544311523" y="78.998046875" type="line"/>
			<point x="225.8519897461" y="105.998046875" type="line"/>
			<point x="228.8519897461" y="540.0428466797" type="line"/>
			<point x="223.8519897461" y="855.6516113281" type="line"/>
			<point x="71.8544311523" y="890.6516113281" type="line"/>
			<point x="71.8544311523" y="976.5493164062" type="line"/>
			<point x="334.1644897461" y="1018.5493164062" type="line"/>
			<point x="383.1644897461" y="985.5493164062" type="line"/>
			<point x="383.1644897461" y="859.4587402344" type="line"/>
			<point x="417.6185913086" y="911.4587402344"/>
			<point x="605.4837036133" y="1023.4591064453"/>
			<point x="743.0372924805" y="1023.4591064453" type="qcurve" smooth="yes"/>
			<point x="909.1727905273" y="1023.4591064453"/>
			<point x="1047.1829223633" y="934.033203125"/>
			<point x="1059.543762207" y="877.7091064453" type="qcurve"/>
			<point x="1097.8766479492" y="923.4777832031"/>
			<point x="1325.2349243164" y="1023.4591064453"/>
			<point x="1431.6976928711" y="1023.4591064453" type="qcurve" smooth="yes"/>
			<point x="1589.9495239258" y="1023.4591064453"/>
			<point x="1754.3176879883" y="866.4587402344"/>
			<point x="1754.3176879883" y="752.4587402344" type="qcurve" smooth="yes"/>
			<point x="1754.3176879883" y="718.1387939453"/>
			<point x="1753.2318725586" y="628.7255859375"/>
			<point x="1753.0051879883" y="596.9522705078" type="qcurve" smooth="yes"/>
			<point x="1758.0051879883" y="105.998046875" type="line"/>
			<point x="1912.002746582" y="78.998046875" type="line"/>
			<point x="1912.002746582" y="0" type="line"/>
			<point x="1455.3760375977" y="0" type="line"/>
			<point x="1455.3760375977" y="70.998046875" type="line"/>
			<point x="1579.1301879883" y="98.998046875" type="line"/>
			<point x="1581.1301879883" y="520.9522705078" type="line"/>
			<point x="1586.8825073242" y="729.3452148438" type="line" smooth="yes"/>
			<point x="1589.2686157227" y="821.3452148438"/>
			<point x="1488.616027832" y="854.3455810547"/>
			<point x="1396.3884887695" y="854.3455810547" type="qcurve" smooth="yes"/>
			<point x="1290.3975219727" y="854.3455810547"/>
			<point x="1106.2185668945" y="785.4055175781"/>
			<point x="1070.787902832" y="761.2805175781" type="qcurve"/>
			<point x="1066.8674926758" y="821.0822753906"/>
			<point x="1066.5748901367" y="549.7255859375"/>
			<point x="1065.8873901367" y="521.9522705078" type="qcurve" smooth="yes"/>
			<point x="1067.8873901367" y="105.998046875" type="line"/>
			<point x="1206.8849487305" y="78.998046875" type="line"/>
			<point x="1206.8849487305" y="0" type="line"/>
			<point x="780.8832397461" y="0" type="line"/>
			<point x="780.8832397461" y="71.998046875" type="line"/>
			<point x="904.6373901367" y="98.998046875" type="line"/>
			<point x="906.6373901367" y="521.9522705078" type="line"/>
			<point x="906.6373901367" y="729.3452148438" type="line" smooth="yes"/>
			<point x="906.6373901367" y="821.3452148438"/>
			<point x="808.282409668" y="854.3455810547"/>
			<point x="720.5095825195" y="854.3455810547" type="qcurve" smooth="yes"/>
			<point x="618.4241333008" y="854.3455810547"/>
			<point x="434.4295043945" y="779.8968505859"/>
			<point x="392.7385864258" y="745.7803955078" type="qcurve"/>
			<point x="393.1644897461" y="523.9522705078" type="line"/>
			<point x="395.1644897461" y="105.998046875" type="line"/>
			<point x="527.405456543" y="78.998046875" type="line"/>
			<point x="527.405456543" y="0" type="line"/>
		</contour>
	</outline>
	<anchor name="bottom" x="958" y="0"/>
	<anchor name="top" x="958" y="1000"/>
</glyph>
<glyph name="n" format="2">
	<unicode hex="006E"/>
	<advance width="1280"/>
	<outline>
		<contour>
			<point x="76.8544311523" y="0" type="line"/>
			<point x="76.8544311523" y="78.998046875" type="line"/>
			<point x="225.8519897461" y="105.998046875" type="line"/>
			<point x="228.8519897461" y="540.0428466797" type="line"/>
			<point x="223.8519897461" y="855.6516113281" type="line"/>
			<point x="71.8544311523" y="890.6516113281" type="line"/>
			<point x="71.8544311523" y="963.7117919922" type="line"/>
			<point x="340.3519897461" y="1018.5493164062" type="line"/>
			<point x="389.3519897461" y="985.5493164062" type="line"/>
			<point x="390.7269897461" y="828.8479003906" type="line"/>
			<point x="422.0393676758" y="895.8083496094"/>
			<point x="600.9553833008" y="1023.6857910156"/>
			<point x="747.0115356445" y="1023.6857910156" type="qcurve" smooth="yes"/>
			<point x="908.6013793945" y="1023.6857910156"/>
			<point x="1059.8731079102" y="880.4354248047"/>
			<point x="1059.8731079102" y="760.5604248047" type="qcurve" smooth="yes"/>
			<point x="1059.8731079102" y="726.2404785156"/>
			<point x="1057.8731079102" y="639.7255859375"/>
			<point x="1057.8731079102" y="596.9522705078" type="qcurve" smooth="yes"/>
			<point x="1062.8731079102" y="105.998046875" type="line"/>
			<point x="1216.8706665039" y="78.998046875" type="line"/>
			<point x="1216.8706665039" y="0" type="line"/>
			<point x="756.1189575195" y="0" type="line"/>
			<point x="756.1189575195" y="71.998046875" type="line"/>
			<point x="879.8731079102" y="98.998046875" type="line"/>
			<point x="881.8731079102" y="521.9522705078" type="line"/>
			<point x="881.8731079102" y="733.1801757812" type="line" smooth="yes"/>
			<point x="881.8731079102" y="821.3470458984"/>
			<point x="783.524597168" y="845.8898925781"/>
			<point x="688.9572143555" y="845.8898925781" type="qcurve" smooth="yes"/>
			<point x="584.0803833008" y="845.8898925781"/>
			<point x="418.1133422852" y="773.3536376953"/>
			<point x="393.8519897461" y="717.763671875" type="qcurve"/>
			<point x="393.8519897461" y="523.9522705078" type="line"/>
			<point x="395.8519897461" y="105.998046875" type="line"/>
			<point x="528.092956543" y="78.998046875" type="line"/>
			<point x="528.092956543" y="0" type="line"/>
		</contour>
	</outline>
	<anchor name="bottom" x="632" y="0"/>
	<anchor name="top" x="632" y="1000"/>
	<anchor name="liga" x="1264" y="0"/>
</glyph>
<glyph name="r" format="2">
	<unicode hex="0072"/>
	<advance width="938"/>
	<outline>
		<contour>
			<point x="75.9973144531" y="0" type="line"/>
			<point x="75.9973144531" y="78.998046875" type="line"/>
			<point x="224.9948730469" y="104.998046875" type="line"/>
			<point x="226.9948730469" y="515.5493164062" type="line"/>
			<point x="222.9948730469" y="855.6516113281" type="line"/>
			<point x="70.9973144531" y="889.6516113281" type="line"/>
			<point x="70.9973144531" y="976.5493164062" type="line"/>
			<point x="349.4323730469" y="1018.5493164062" type="line"/>
			<point x="397.4522705078" y="984.5493164062" type="line"/>
			<point x="397.1198730469" y="874.3077392578" type="line"/>
			<point x="442.0285644531" y="907.5493164062"/>
			<point x="689.6401367188" y="1008.3226318359"/>
			<point x="819.9225956086" y="1008.5493164062" type="qcurve" smooth="yes"/>
			<point x="914.4886474609" y="1008.5493164062" type="line"/>
			<point x="894.4886474609" y="667.9868164062" type="line"/>
			<point x="785.4896240234" y="667.9868164062" type="line"/>
			<point x="683.1932373047" y="809.4770507812" type="line"/>
			<point x="639.1237792969" y="797.2180175781"/>
			<point x="449.6477050781" y="764.8289794922"/>
			<point x="388.8698730469" y="745.7921142578" type="qcurve"/>
			<point x="388.8698730469" y="520.5493164062" type="line"/>
			<point x="390.8698730469" y="104.998046875" type="line"/>
			<point x="570.6240234375" y="78.998046875" type="line"/>
			<point x="570.6240234375" y="0" type="line"/>
		</contour>
	</outline>
	<anchor name="bottom" x="432" y="0"/>
	<anchor name="top" x="486" y="1000"/>
</glyph>
<glyph name="s" format="2">
	<unicode hex="0073"/>
	<advance width="786"/>
	<outline>
		<contour>
			<point x="0.3880884802" y="24.70703125" type="line"/>
			<point x="0.3880884802" y="352.8798828125" type="line"/>
			<point x="87.0167505895" y="352.8798828125" type="line"/>
			<point x="125.0167505895" y="249.2939453125" type="line" smooth="yes"/>
			<point x="145.0320424985" y="168.8680419922"/>
			<point x="295.0848989438" y="74.6805419922"/>
			<point x="371.1987905454" y="74.6805419922" type="qcurve" smooth="yes"/>
			<point x="483.691222186" y="74.6805419922"/>
			<point x="621.0040883969" y="152.8492431641"/>
			<point x="620.0177602719" y="240.5202636719" type="qcurve" smooth="yes"/>
			<point x="619.0314321469" y="317.9503173828"/>
			<point x="476.6611928891" y="402.4621582031"/>
			<point x="320.7822866391" y="464.6898193359" type="qcurve" smooth="yes"/>
			<point x="149.4111928891" y="536.6481933594"/>
			<point x="45.3721303891" y="647.6749267578"/>
			<point x="47.3294947302" y="737.1927490234" type="qcurve" smooth="yes"/>
			<point x="49.3174428891" y="863.5966796875"/>
			<point x="206.4346303891" y="1029.5500488281"/>
			<point x="356.8584585141" y="1029.5500488281" type="qcurve" smooth="yes"/>
			<point x="418.3076772641" y="1029.5500488281"/>
			<point x="458.6282339047" y="997.9243164062"/>
			<point x="494.0227651547" y="975.9243164062" type="qcurve"/>
			<point x="544.0227651547" y="1002.8422851562" type="line"/>
			<point x="620.7256460141" y="1002.8422851562" type="line"/>
			<point x="620.7256460141" y="669.9471435547" type="line"/>
			<point x="520.837706561" y="669.9471435547" type="line"/>
			<point x="497.015440936" y="681.2205810547" type="line" smooth="yes"/>
			<point x="471.111144061" y="784.5330810547"/>
			<point x="414.0939321469" y="930.5338134766"/>
			<point x="346.8776235532" y="930.5338134766" type="qcurve" smooth="yes"/>
			<point x="262.4723501157" y="930.5338134766"/>
			<point x="173.218565936" y="854.337890625"/>
			<point x="173.218565936" y="813.5897216797" type="qcurve" smooth="yes"/>
			<point x="173.218565936" y="744.7540283203"/>
			<point x="258.1266138708" y="665.4426269531"/>
			<point x="422.4898951208" y="606.8068847656" type="qcurve" smooth="yes"/>
			<point x="566.5035669958" y="551.7805175781"/>
			<point x="747.1924428891" y="414.0936279297"/>
			<point x="747.1924428891" y="285.2950439453" type="qcurve" smooth="yes"/>
			<point x="747.1924428891" y="156.6485595703"/>
			<point x="579.1227407407" y="-24.9097900391"/>
			<point x="400.4730825376" y="-24.9097900391" type="qcurve" smooth="yes"/>
			<point x="298.9522085141" y="-24.9097900391"/>
			<point x="142.4480581235" y="15.9375"/>
			<point x="108.0909693395" y="31.625" type="qcurve"/>
			<point x="72.0909693395" y="24.70703125" type="line"/>
		</contour>
	</outline>
	<anchor name="bottom" x="468" y="0"/>
	<anchor name="top" x="416" y="1000"/>
</glyph>
<glyph name="t" format="2">
	<unicode hex="0074"/>
	<advance width="634"/>
	<outline>
		<contour>
			<point x="16.2846679688" y="857.2868652344" type="line"/>
			<point x="16.2846679688" y="970.1374511719" type="line"/>
			<point x="165.2846679688" y="991.1374511719"/>
			<point x="258.8780517578" y="1160.4689941406"/>
			<point x="328.5" y="1323" type="qcurve"/>
			<point x="296.5625" y="1323" type="line"/>
			<point x="332.5625" y="1243" type="line"/>
			<point x="327.5625" y="977.8958740234" type="line"/>
			<point x="554.6870117188" y="977.8958740234" type="line"/>
			<point x="554.6870117188" y="860.9904785156" type="line"/>
			<point x="325.5625" y="860.9904785156" type="line"/>
			<point x="327.5625" y="529.6555175781" type="line"/>
			<point x="335.5625" y="254.3634033203" type="line" smooth="yes"/>
			<point x="336.5625" y="209.3634033203"/>
			<point x="375.5625" y="137.0909423828"/>
			<point x="481.6870117188" y="137.0909423828" type="qcurve" smooth="yes"/>
			<point x="552.6870117188" y="137.0909423828" type="line"/>
			<point x="552.6870117188" y="30" type="line"/>
			<point x="325.8125" y="-15.7275390625" type="line"/>
			<point x="266.4375" y="-17.7275390625"/>
			<point x="147.25" y="85.5849609375"/>
			<point x="149.25" y="168.2724609375" type="qcurve" smooth="yes"/>
			<point x="155.25" y="529.6555175781" type="line"/>
			<point x="152.25" y="853.2868652344" type="line"/>
		</contour>
	</outline>
	<anchor name="bottom" x="322" y="0"/>
	<anchor name="center" x="312" y="622"/>
	<anchor name="top" x="322" y="1179"/>
	<anchor name="topright" x="540" y="1000"/>
</glyph>
<glyph name="v" format="2">
	<unicode hex="0076"/>
	<advance width="991"/>
	<outline>
		<contour>
			<point x="-21.7930297852" y="919.0515136719" type="line"/>
			<point x="-21.7930297852" y="1003.5493164062" type="line"/>
			<point x="421.639831543" y="1003.5493164062" type="line"/>
			<point x="421.639831543" y="919.0515136719" type="line"/>
			<point x="278.0469360352" y="893.0515136719" type="line"/>
			<point x="410.7141113281" y="518.1483154297" type="line"/>
			<point x="469.2553100586" y="224.48046875" type="line"/>
			<point x="489.739074707" y="128.5076293945" type="line"/>
			<point x="489.739074707" y="128.5076293945" type="line"/>
			<point x="516.455078125" y="223.10546875" type="line"/>
			<point x="638.3371582031" y="596.6294555664" type="line"/>
			<point x="754.0756835938" y="893.0515136719" type="line"/>
			<point x="608.7801513672" y="919.0515136719" type="line"/>
			<point x="608.7801513672" y="1003.5493164062" type="line"/>
			<point x="1046.8538208008" y="1003.5493164062" type="line"/>
			<point x="1046.8538208008" y="919.0515136719" type="line"/>
			<point x="876.3694458008" y="897.0515136719" type="line"/>
			<point x="738.3561401367" y="548.9342651367" type="line"/>
			<point x="557.8854370117" y="-0.7275390625" type="line"/>
			<point x="417.9616088867" y="-0.7275390625" type="line"/>
			<point x="247.1695556641" y="480.6848144531" type="line"/>
			<point x="107.4215698242" y="894.0515136719" type="line"/>
		</contour>
	</outline>
	<anchor name="bottom" x="513" y="0"/>
	<anchor name="top" x="513" y="1000"/>
</glyph>
